<svg width="17" height="21" viewBox="0 0 17 21" fill="none" xmlns="http://www.w3.org/2000/svg">
<path fill-rule="evenodd" clip-rule="evenodd" d="M7.0337 18.4305C7.48695 18.9594 8.06882 19.25 8.67257 19.25H8.67345C9.27982 19.25 9.86432 18.9594 10.3184 18.4296C10.5617 18.1482 10.9764 18.1253 11.2451 18.3792C11.5146 18.6331 11.5364 19.0685 11.2941 19.3499C10.5871 20.1722 9.65695 20.625 8.67345 20.625H8.6717C7.69082 20.6241 6.76245 20.1713 6.05807 19.349C5.8157 19.0676 5.83757 18.6322 6.10707 18.3792C6.37657 18.1244 6.79132 18.1473 7.0337 18.4305ZM8.71615 0.916687C12.6055 0.916687 15.2183 4.09019 15.2183 7.05377C15.2183 8.57819 15.5884 9.22444 15.9813 9.9101C16.3698 10.5866 16.8099 11.3548 16.8099 12.8068C16.5045 16.5165 12.8076 16.819 8.71615 16.819C4.62465 16.819 0.926898 16.5165 0.625012 12.8654C0.622398 11.3548 1.06252 10.5866 1.45102 9.9101L1.58817 9.66825C1.92586 9.06022 2.21402 8.39884 2.21402 7.05377C2.21402 4.09019 4.82677 0.916687 8.71615 0.916687ZM8.71615 2.29169C5.65802 2.29169 3.52652 4.80152 3.52652 7.05377C3.52652 8.95952 3.02165 9.84044 2.5754 10.6178C2.21752 11.242 1.9349 11.7352 1.9349 12.8068C2.08102 14.5356 3.1704 15.444 8.71615 15.444C14.2313 15.444 15.3548 14.4953 15.5 12.7472C15.4974 11.7352 15.2148 11.242 14.8569 10.6178C14.4106 9.84044 13.9058 8.95952 13.9058 7.05377C13.9058 4.80152 11.7743 2.29169 8.71615 2.29169Z" fill="#E2D8FD"/>
</svg>
