<svg width="17" height="17" viewBox="0 0 17 17" fill="none" xmlns="http://www.w3.org/2000/svg">
<path fill-rule="evenodd" clip-rule="evenodd" d="M7.54253 10.3483L10.59 15.2925C10.7234 15.5091 10.9317 15.5066 11.0159 15.495C11.1 15.4833 11.3025 15.4316 11.3759 15.1858L15.1867 2.31497C15.2534 2.08747 15.1309 1.93247 15.0759 1.87747C15.0225 1.82247 14.87 1.70497 14.6492 1.76747L1.7692 5.53914C1.52503 5.61081 1.4717 5.81581 1.46003 5.89997C1.44837 5.98581 1.44503 6.19831 1.66087 6.33414L6.6617 9.46164L11.08 4.99664C11.3225 4.75164 11.7184 4.74914 11.9642 4.99164C12.21 5.23414 12.2117 5.63081 11.9692 5.87581L7.54253 10.3483ZM10.9509 16.75C10.3709 16.75 9.8392 16.455 9.52586 15.9483L6.29503 10.7058L0.998365 7.39331C0.427532 7.03581 0.129199 6.39914 0.221699 5.72997C0.313366 5.06081 0.772532 4.52914 1.41753 4.33997L14.2975 0.568306C14.89 0.394972 15.525 0.559139 15.9617 0.994139C16.3984 1.43331 16.5609 2.07497 16.3842 2.66997L12.5734 15.54C12.3825 16.1875 11.8492 16.645 11.1817 16.7341C11.1034 16.7441 11.0275 16.75 10.9509 16.75Z" fill="white"/>
</svg>
